<svg id="Warstwa_1" data-name="Warstwa 1" xmlns="http://www.w3.org/2000/svg" xmlns:xlink="http://www.w3.org/1999/xlink" viewBox="0 0 749.7 501.16"><defs><style>.cls-1{fill:url(#Gradient_bez_nazwy_157);}.cls-12,.cls-2{fill:#fff;}.cls-2{stroke:#000;stroke-miterlimit:10;}.cls-3{fill:url(#Gradient_bez_nazwy_136);}.cls-4{fill:url(#Gradient_bez_nazwy_136-2);}.cls-5{fill:url(#Gradient_bez_nazwy_157-2);}.cls-6{fill:url(#Gradient_bez_nazwy_136-3);}.cls-7{fill:url(#Gradient_bez_nazwy_136-4);}.cls-8{fill:url(#Gradient_bez_nazwy_136-5);}.cls-9{fill:url(#Gradient_bez_nazwy_157-3);}.cls-10{fill:url(#Gradient_bez_nazwy_157-4);}.cls-11{fill:url(#Gradient_bez_nazwy_157-5);}.cls-12{font-size:218.38px;font-family:SavoyeLetPlain, Savoye LET;}</style><linearGradient id="Gradient_bez_nazwy_157" x1="938.06" y1="563.62" x2="1094.72" y2="563.62" gradientUnits="userSpaceOnUse"><stop offset="0" stop-color="#5ec2d7"/><stop offset="0.99" stop-color="#5ec2d7"/></linearGradient><linearGradient id="Gradient_bez_nazwy_136" x1="529.06" y1="547.77" x2="529.55" y2="547.77" gradientUnits="userSpaceOnUse"><stop offset="0" stop-color="#0597a7"/><stop offset="1" stop-color="#0099a7"/></linearGradient><linearGradient id="Gradient_bez_nazwy_136-2" x1="875.88" y1="429.14" x2="1069.21" y2="429.14" xlink:href="#Gradient_bez_nazwy_136"/><linearGradient id="Gradient_bez_nazwy_157-2" x1="575.03" y1="419.74" x2="933.5" y2="419.74" xlink:href="#Gradient_bez_nazwy_157"/><linearGradient id="Gradient_bez_nazwy_136-3" x1="950" y1="531" x2="950" y2="531" xlink:href="#Gradient_bez_nazwy_136"/><linearGradient id="Gradient_bez_nazwy_136-4" x1="1033" y1="512" x2="1033" y2="512" xlink:href="#Gradient_bez_nazwy_136"/><linearGradient id="Gradient_bez_nazwy_136-5" x1="933" y1="554" x2="933" y2="554" xlink:href="#Gradient_bez_nazwy_136"/><linearGradient id="Gradient_bez_nazwy_157-3" x1="573" y1="354" x2="573" y2="354" xlink:href="#Gradient_bez_nazwy_157"/><linearGradient id="Gradient_bez_nazwy_157-4" x1="106" y1="244" x2="106" y2="244" xlink:href="#Gradient_bez_nazwy_157"/><linearGradient id="Gradient_bez_nazwy_157-5" x1="310" y1="242" x2="310" y2="242" xlink:href="#Gradient_bez_nazwy_157"/></defs><path class="cls-1" d="M1075.94,587.09c8.68-30.74,47.43-168-21-230.65a107.5,107.5,0,0,0-30.25-19.35,124.47,124.47,0,0,1,26.55,38.2c9.07,20.54,11,40.54,8.87,78.6C1058.39,485.46,1057,511.5,1048,553c-8.18,37.87-21.69,98.12-60.79,166.24a507.54,507.54,0,0,1-49.15,70.91C976.6,758.94,1046.18,692.53,1075.94,587.09Z" transform="translate(-575.03 -288.99)"/><path class="cls-2" d="M682.22,339.7" transform="translate(-575.03 -288.99)"/><path class="cls-3" d="M729,357c-23.46,7.06-60.27,22.28-75,55.24-27.49,61.41,39.85,143.64,88.63,203.06,29.87,36.38,77.2,85.76,147.87,132-61.94-19.44-198-71.51-268.81-191.93C604.57,526.27,556,443.64,587,392c6.93-11.55,16.41-19.16,20-22C653.77,333.05,718.69,353.57,729,357Z" transform="translate(-575.03 -288.99)"/><path class="cls-4" d="M1022.23,335.47c-28.81-14.62-63.83-2.8-70.35-.59-56,19-74,75.74-76,82.38L925,530c-2.92-71.48,21.68-126,56.65-135.16,17-4.46,32.46,2.76,35.35,4.16,31.4,15.26,47.67,61.15,38,115C1084.84,431.59,1064.71,357,1022.23,335.47Z" transform="translate(-575.03 -288.99)"/><path class="cls-2" d="M746.71,319" transform="translate(-575.03 -288.99)"/><path class="cls-2" d="M818.43,755.1" transform="translate(-575.03 -288.99)"/><path class="cls-5" d="M933.5,550.5C905,516.75,879.88,488.65,860,467c-33.2-36.16-49.89-52.3-72-69-21-15.86-36.48-27.34-60-35-34-11.06-64.44-7.55-82-4-9.77,3.19-34.87,12.89-53,38.54A101.15,101.15,0,0,0,577,434c-2-11.83-7-49.6,15-86,29.59-48.87,84.66-56.92,93-58,86.13-11.16,159.85,72.63,189.64,126.08,2.86,5.14,5,9.5,6.47,12.48,4.06,8,7.61,15.37,10.71,22,2.85,6.09,5.3,11.5,7.27,16,0,0,2.34,5.27,4.8,11.05C908.08,487.36,919.08,514.32,933.5,550.5Z" transform="translate(-575.03 -288.99)"/><path class="cls-2" d="M1053.33,326.31" transform="translate(-575.03 -288.99)"/><path class="cls-2" d="M740.35,462.9" transform="translate(-575.03 -288.99)"/><path class="cls-2" d="M536.5,393.5" transform="translate(-575.03 -288.99)"/><path class="cls-2" d="M1137.5,687.5" transform="translate(-575.03 -288.99)"/><path class="cls-2" d="M884.6,656.05" transform="translate(-575.03 -288.99)"/><path class="cls-6" d="M950,531" transform="translate(-575.03 -288.99)"/><path class="cls-7" d="M1033,512" transform="translate(-575.03 -288.99)"/><path class="cls-8" d="M933,554" transform="translate(-575.03 -288.99)"/><path class="cls-9" d="M573,354" transform="translate(-575.03 -288.99)"/><path class="cls-10" d="M106,244" transform="translate(-575.03 -288.99)"/><path class="cls-11" d="M310,242" transform="translate(-575.03 -288.99)"/><text class="cls-12" transform="translate(494.54 414.36)">eetsy</text></svg>